<svg width="95" height="63" viewBox="0 0 95 63" fill="none" xmlns="http://www.w3.org/2000/svg">
<g clip-path="url(#clip0_3:266)">
<path d="M9.672 54.608C9.144 55.712 8.04 57.024 6.712 57.024C4.824 57.024 3.912 55.536 3.912 54.128C3.912 53.296 4.424 52 5.8 51.648L6.216 51.584C6.712 51.52 7.176 51.296 7.176 50.832C7.176 50.48 6.936 50.368 6.744 50.304C6.232 50.112 5.176 50.032 5.176 48.608C5.176 47.792 5.528 46.816 6.472 46.752C6.984 46.752 7.448 47.152 7.576 47.696C7.672 48.112 8.024 48.336 8.488 48.336C8.792 48.336 9.08 48.192 9.272 48.048C9.272 47.216 8.52 45.872 6.408 45.872C4.152 45.872 2.904 47.376 2.904 48.752C2.904 49.712 3.464 50.368 4.152 50.8C2.744 51.168 1.4 52.544 1.4 54.416C1.4 56.368 3.24 58.176 6.328 58.176C7.848 58.176 10.632 57.408 10.632 55.568C10.632 55.056 10.232 54.576 9.672 54.608ZM17.3223 54.464C17.3223 54.016 17.3223 53.04 17.4503 52.464C17.2743 51.776 16.2663 50.832 15.0503 50.832C12.8423 50.832 11.1463 52.976 11.1463 55.184C11.1463 56.496 12.0103 57.456 13.1943 57.456C14.2183 57.456 15.4823 56.576 15.9303 55.344C16.0103 56 16.3623 57.088 17.3703 57.088C17.5943 57.088 17.9463 57.024 18.1543 56.848C17.7543 56.432 17.3223 55.168 17.3223 54.464ZM13.5463 55.808C13.3063 55.808 13.1943 55.424 13.1943 55.104C13.1943 54.032 14.2823 51.824 15.1463 51.824C15.4023 51.824 15.5783 52.016 15.6743 52.272C15.4983 53.296 14.4583 55.808 13.5463 55.808ZM19.1605 56.048C18.8245 56.048 18.5525 56.272 18.5525 56.592C18.5525 57.408 19.7365 57.744 20.6485 57.744C22.2325 57.744 23.3845 56.688 23.3845 55.488C23.3845 54.736 22.8885 54.16 21.9605 53.44C21.2405 52.88 20.8885 52.592 20.8885 52.288C20.8885 52.16 20.9365 52.032 21.0485 51.888C21.2565 51.92 21.4325 51.936 21.5925 51.936C22.2645 51.936 22.4885 51.648 22.4885 51.168C22.3125 50.96 21.9125 50.8 21.3685 50.8C20.2005 50.8 18.9045 51.408 18.9045 52.72C18.9045 54.176 21.0485 54.784 21.0485 55.808C21.0485 56.304 20.6165 56.592 20.3125 56.592C19.9445 56.592 19.3685 56.352 19.1605 56.048ZM28.8653 50.848C28.6093 50.848 28.3853 50.896 28.0333 50.992C28.1773 51.568 28.2253 52.16 28.2253 52.768C28.2253 53.232 28.1933 53.696 28.1293 54.16C27.8413 55.008 27.3613 55.52 27.0733 55.52C26.3213 55.52 26.0653 52.576 25.6653 51.616C25.4573 51.136 25.0733 50.976 24.6733 50.976C24.0013 50.976 23.3133 51.408 23.3133 51.408C23.6973 51.76 24.1453 52.8 24.3693 53.664C24.5773 54.544 25.3133 56.88 26.4653 56.88C26.9613 56.88 27.3773 56.592 27.7293 56.192C27.6173 56.624 27.4893 57.056 27.3613 57.456C27.3453 57.632 26.3213 60.144 25.0253 60.144C24.6573 60.144 24.4813 59.984 24.3372 59.984C24.1613 59.984 24.1133 60.384 24.1133 60.688C24.1133 61.216 24.4333 61.984 25.6813 61.984C28.1453 61.984 29.6813 55.52 29.8573 54.464C29.9213 54.128 30.0813 53.408 30.0813 52.704C30.0813 51.76 29.9693 50.848 28.8653 50.848ZM38.5441 54.4C36.0801 54.4 35.1041 54.448 35.1041 53.328C35.1041 53.136 35.1361 53.056 35.2161 52.848C36.2241 52.736 36.5921 52.72 38.5761 52.704C40.0321 52.704 41.6321 52.704 41.6321 53.632C41.6321 53.888 41.5521 54.016 41.3601 54.272C40.7681 54.352 39.8881 54.4 38.5441 54.4ZM54.9741 48.48C54.9741 48.48 54.6861 46.304 51.7261 46.304C48.2541 46.304 46.6221 49.84 46.6221 52.704C46.6221 55.344 48.2061 58.272 51.5821 58.272C52.9901 58.272 54.3021 57.728 55.1501 56.672C55.3421 56.432 55.5181 56.112 55.5181 55.76C55.5181 55.504 55.4061 55.2 54.9741 55.056C54.5901 55.424 53.5341 56.704 51.9661 56.704C50.6221 56.704 49.2461 55.184 49.2461 52.336C49.2461 51.088 49.6461 47.328 52.1261 47.328C52.8941 47.328 53.1021 48.208 53.1821 48.336C53.3421 48.608 53.6461 48.784 53.9341 48.784C54.3341 48.784 54.7181 48.688 54.9741 48.48ZM59.9524 50.608C58.8644 50.608 58.0164 51.184 57.8884 52.352H57.8564C56.8324 52.352 56.2724 53.392 56.2724 54.544C56.2724 55.936 57.1684 57.6 59.1524 57.568C61.2644 57.536 62.3524 55.472 62.3524 53.616C62.3524 52.048 61.5844 50.608 59.9524 50.608ZM59.2324 56.72C58.6884 56.72 58.2724 56.096 58.2724 55.472C58.2724 54.944 58.4804 54.416 58.8964 54.256C58.9444 54.048 58.9764 53.84 58.9764 53.616C58.9764 53.088 58.8004 52.608 58.3044 52.432C58.4484 52.208 58.7204 51.872 59.1044 51.872C60.0964 51.872 60.3844 53.008 60.3844 54.128C60.3844 55.184 60.0644 56.72 59.2324 56.72ZM66.5774 50.608C65.4894 50.608 64.6414 51.184 64.5134 52.352H64.4814C63.4574 52.352 62.8974 53.392 62.8974 54.544C62.8974 55.936 63.7934 57.6 65.7774 57.568C67.8894 57.536 68.9774 55.472 68.9774 53.616C68.9774 52.048 68.2094 50.608 66.5774 50.608ZM65.8574 56.72C65.3134 56.72 64.8974 56.096 64.8974 55.472C64.8974 54.944 65.1054 54.416 65.5214 54.256C65.5694 54.048 65.6014 53.84 65.6014 53.616C65.6014 53.088 65.4254 52.608 64.9294 52.432C65.0734 52.208 65.3454 51.872 65.7294 51.872C66.7214 51.872 67.0094 53.008 67.0094 54.128C67.0094 55.184 66.6894 56.72 65.8574 56.72ZM75.9704 56.496C75.1864 56.352 74.6744 55.984 74.1624 55.392C73.7944 54.96 73.5544 54.544 73.3464 54.16C74.8344 53.104 75.4264 52.208 75.4264 51.376C75.4264 50.752 75.0264 50.528 74.5624 50.528C74.2904 50.528 73.8904 50.608 73.6504 50.736C73.4904 52.208 72.3864 53.408 71.5224 54.048C71.6344 51.504 71.7144 49.232 71.7144 48.464C71.7144 47.408 71.4424 46.88 70.8024 46.88C70.4664 46.88 70.0504 47.008 69.4584 47.344C69.8424 49.072 69.8424 51.328 69.8424 53.136C69.8424 54.832 69.7944 56.704 69.5384 57.68C69.7624 57.84 70.0824 57.984 70.4184 57.984C71.1704 57.984 71.3944 57.04 71.4264 56.384L71.4744 55.328C71.6824 55.216 71.8744 55.104 72.0664 54.992C72.7704 56.496 73.4104 57.872 74.9144 57.872C75.5064 57.872 76.0344 57.52 76.0344 57.008C76.0344 56.88 76.0344 56.64 75.9704 56.496ZM78.0294 49.104C77.5334 49.104 76.7654 49.296 76.7654 49.856C76.7654 50.272 77.0214 51.184 77.6934 51.184C78.2214 51.184 79.0054 50.544 79.0054 49.984C79.0054 49.584 78.7174 49.104 78.0294 49.104ZM78.7494 57.424C78.7494 55.44 78.8454 54.496 78.8454 52.976C78.8454 52.144 78.4134 51.76 77.6134 51.76C77.3254 51.76 77.0694 51.808 76.7814 51.856C76.7974 52.256 76.7974 52.736 76.7974 52.896C76.7974 54.08 76.7334 54.832 76.7334 55.648C76.7334 57.056 76.8614 57.728 77.8374 57.728C78.1734 57.728 78.4294 57.616 78.7494 57.424ZM86.4433 55.184C86.4433 54.608 86.4913 54.24 86.4913 53.392C86.4913 52.192 86.3153 51.104 84.8273 51.104C84.2513 51.104 83.4353 51.264 81.8673 54.048C81.8673 53.12 81.9633 52.064 81.9633 51.648C81.9633 50.848 81.5153 50.528 81.0033 50.528C80.5872 50.528 80.1233 50.736 79.7873 51.04C79.8993 51.456 79.9313 51.904 79.9313 52.352C79.9313 53.168 79.8193 54.208 79.8193 55.168C79.8193 56.256 79.9313 57.264 81.1793 57.264C81.4513 57.264 81.6273 57.216 81.8193 57.12C82.9233 52.832 84.0913 52.256 84.3153 52.256C84.3953 52.256 84.4433 52.32 84.4433 52.592C84.4433 53.008 84.3793 54.064 84.3793 55.12C84.3793 56.816 85.2433 57.616 86.0273 57.616C86.4593 57.616 86.8913 57.344 87.0193 56.992C86.6673 56.64 86.4433 56.08 86.4433 55.184ZM90.5308 56.624C89.9388 56.512 89.4428 56.416 89.4428 56.064C89.4428 55.968 89.4748 55.872 89.5388 55.808C89.7468 55.856 89.9708 55.872 90.2108 55.872C91.9227 55.872 93.1228 54.416 93.1228 52.8C93.1228 52.272 93.0108 51.76 92.7708 51.328C93.4108 50.944 94.1788 50.752 94.1788 50.752C94.1788 50.672 94.1948 50.608 94.1948 50.544C94.1948 49.856 93.8268 49.568 93.4748 49.568C92.8348 49.568 92.3868 50.096 92.1148 50.576C91.7628 50.32 91.2988 50.16 90.7388 50.16C89.6988 50.16 88.9308 50.624 88.8348 51.584C87.9068 51.584 87.4108 52.352 87.4108 53.248C87.4108 54.032 87.7788 54.896 88.5468 55.408C88.2588 55.648 88.0508 55.92 88.0508 56.272C88.0508 56.784 88.3068 57.456 90.0988 57.92C91.1228 58.176 92.0828 58.624 92.0828 59.664C92.0828 60.432 91.5068 61.008 90.6908 61.008C89.8108 61.008 89.2828 60.4 89.2828 59.68C89.2828 59.328 89.4108 58.864 89.6508 58.576C89.3148 58.304 88.9948 58.144 88.4668 58.144C87.6988 58.144 87.1227 58.736 87.1227 59.68C87.1227 61.312 88.9308 62.096 90.5468 62.096C92.2908 62.096 94.2588 61.216 94.2588 59.264C94.2588 57.056 91.6508 56.832 90.5308 56.624ZM90.1468 51.408C90.9468 51.408 91.0748 52.432 91.0748 53.152C91.0748 54 90.7228 54.832 90.1788 54.832C89.7948 54.832 89.4108 54.512 89.4108 54.048C89.4108 53.632 89.6348 53.248 89.9868 53.152C90.0028 52.96 90.0508 52.8 90.0508 52.624C90.0348 52.288 89.8748 51.968 89.5707 51.776C89.7148 51.6 89.8908 51.408 90.1468 51.408Z" fill="#FDFDFD"/>
<path fill-rule="evenodd" clip-rule="evenodd" d="M76.7864 12.1921L75.3086 11.9122C75.0657 12.168 75.0205 12.4416 75.2258 12.736C75.5356 13.4635 75.8341 14.1938 75.9726 14.9779C76.1224 15.4164 76.1668 15.8844 76.1024 16.344C76.0207 17.5607 75.9614 18.7779 75.9006 19.9954C76.992 19.8496 76.7163 20.8642 76.8527 21.5153L78.0285 24.9197L78.9717 25.3526C79.3918 24.6723 79.3584 23.8599 79.722 23.1702C80.16 22.3238 79.5892 21.2838 80.2158 20.5093C80.6077 19.7707 80.6992 18.8992 81.136 18.1888C82.2009 18.0288 82.6559 16.7925 83.5295 16.2109C84.4203 15.5753 85.3534 14.9579 86.1346 14.1959C86.7145 13.2406 87.3948 12.3498 88.1636 11.5389C88.5087 10.7693 88.8819 9.99769 89.0324 9.16681C89.1772 8.12258 88.953 7.06868 88.7984 6.03591C88.6801 5.32748 88.3111 4.67618 87.8876 4.14306C88.0105 3.61271 87.4667 2.69471 87.0656 3.41358C86.853 3.82173 85.202 3.76238 86.1055 4.37739C87.3285 5.02166 87.7041 6.59996 87.277 7.8541C86.9597 9.09251 86.0251 10.0095 85.1325 10.8654C84.6912 11.6116 83.8504 11.8345 83.1568 12.2769C82.4222 13.0335 81.3704 13.2481 80.5601 13.8465C79.8087 14.6197 79.0663 13.3099 78.3355 13.0581C77.8434 12.7312 77.3274 12.4416 76.7919 12.1918L76.7864 12.1921Z" fill="#89A754"/>
<path fill-rule="evenodd" clip-rule="evenodd" d="M78.6137 18.8761C78.3976 19.5477 78.1431 20.209 78.1063 20.9194L77.971 21.9769C77.4424 22.7625 77.7676 23.6911 78.0691 24.5337C78.5694 25.3614 78.9683 25.4425 79.0978 24.9046C79.4141 24.3516 79.3021 23.8556 79.5695 23.2999C79.764 22.8967 79.6731 23.0288 79.764 22.8967C79.9751 22.1021 79.5763 21.2087 80.1326 20.5188C80.5236 19.7796 80.6584 18.8277 81.0915 18.1148C81.7508 18.0624 82.1485 17.5291 82.5803 17.0475C83.3235 16.1385 84.3342 15.6163 85.2252 14.8734C85.8592 14.5041 86.2626 13.9198 86.6421 13.3042C87.0921 12.5317 87.8974 11.9446 88.2541 11.1912C88.5772 10.3193 88.9687 9.56967 88.9872 8.59827C89.0499 7.80363 88.8648 7.06799 88.7436 6.25688C88.7115 7.49284 88.4982 8.71421 87.9027 9.81082C87.1463 11.4385 85.6875 12.5304 84.4162 13.7286C82.8381 15.4621 81.1084 17.0913 79.149 18.3878C78.9578 18.5355 78.7468 18.671 78.6137 18.8761Z" fill="#657B3E"/>
<path fill-rule="evenodd" clip-rule="evenodd" d="M7.241 21.5109C5.87913 23.1381 6.10439 26.0562 7.1638 27.8419C8.63462 29.8382 10.7916 31.2514 13.0317 32.264C16.922 33.0065 20.0822 35.6068 23.6173 37.2407C25.7001 37.4751 27.6745 38.2712 29.7916 38.3198C33.6776 38.3087 37.4687 37.118 41.3576 37.2137C43.1311 36.6887 44.9063 37.3545 46.6987 36.9111C48.5036 36.393 50.3979 36.5029 52.177 36.2652C54.2005 35.4625 56.4461 36.3835 58.5416 35.8358C61.1912 35.3982 63.8882 36.2929 66.5084 35.5813C69.2874 35.2703 72.1709 34.5103 74.29 32.5893C76.6005 30.7865 79.6028 28.6568 79.1287 25.558C77.7264 23.7673 78.1017 20.367 76.1449 19.6755C76.7929 17.1597 76.3213 14.3002 75.2349 12.0757C76.4867 11.9611 77.0557 12.7084 75.9348 10.9382C73.5624 9.06655 70.1984 9.74158 67.8445 10.76C64.9577 11.9097 63.2465 13.7141 60.8562 14.976C58.7632 16.1712 56.4163 16.8588 54.378 18.1708C51.9176 19.3052 48.708 18.6015 46.545 19.9742C44.9462 20.7603 41.188 21.5494 38.7342 21.4907C37.8113 21.4209 33.7715 22.909 31.2427 23.513C28.1705 24.4948 25.1802 23.6454 22.2808 22.6114C18.9701 22.284 15.6255 22.822 12.3431 22.5273C10.5794 22.2373 8.76298 22.8925 7.24463 21.5134L7.241 21.5109Z" fill="#E00522"/>
<path fill-rule="evenodd" clip-rule="evenodd" d="M10.6066 30.8156C10.6066 30.8156 11.3027 31.4209 13.0391 32.1647C16.9303 32.9078 20.1229 35.5291 23.658 37.163C25.7402 37.3983 27.7019 38.1682 29.819 38.2168C33.705 38.2057 37.6749 37.0817 41.4261 37.1014C43.1996 36.5764 44.8632 37.2568 46.654 36.8135C48.4596 36.2945 50.3867 36.3976 52.164 36.1626C54.1881 35.359 56.4716 36.2833 58.5671 35.7355C61.2167 35.2979 63.8939 36.2018 66.5122 35.493C69.2923 35.1787 72.0902 34.4458 74.2112 32.5219C76.5224 30.7183 79.5283 28.6999 79.0508 25.6001C78.7885 25.3109 78.5533 24.7878 78.3693 24.2584C77.9821 23.1595 77.9475 22.3449 77.7663 22.717C76.7954 24.6857 74.2592 27.2556 72.9974 27.4587C70.8501 27.8057 68.0784 28.6385 66.4117 29.8224C64.346 31.2888 61.6353 31.7434 58.6154 31.7007C55.688 31.6598 52.7688 31.599 50.1882 32.7702C48.3665 33.5963 46.2826 33.3732 44.5237 33.9216C41.0458 35.007 37.7809 36.5894 33.0486 36.0637C29.8754 35.7113 29.4384 36.533 26.9453 36.3157C24.5631 36.1062 22.9655 36.1695 20.6613 34.8497C16.869 32.6763 13.2767 31.8932 10.6102 30.8181L10.6066 30.8156Z" fill="#BA041C"/>
<path fill-rule="evenodd" clip-rule="evenodd" d="M12.2576 25.1526C15.9858 27.0013 15.1756 27.7259 17.4162 27.6474C19.5978 27.5711 22.3749 27.8053 23.8746 28.3002C26.3586 29.0496 28.7647 27.9961 31.2395 28.5471C33.6081 28.0746 35.9352 27.9172 38.3257 27.7162C40.623 27.3999 42.9839 27.8968 44.9766 26.2352C47.1138 25.1778 49.5907 26.2875 51.4459 24.2426C53.2283 23.1451 55.4729 24.5689 56.8603 22.3994C58.527 20.5993 60.3903 23.819 61.9585 21.4449C63.3474 19.7396 65.3003 18.8024 67.1437 17.7348C68.5545 16.9751 69.9952 16.2828 71.4021 15.5191C71.3036 13.7985 68.7282 16.6528 67.4537 16.2175C64.782 16.9903 62.328 18.403 59.8786 19.741C57.2182 18.0042 55.1753 21.6063 52.9094 22.0945C50.5804 22.0197 48.1154 22.1211 46.1538 23.6753C44.0212 24.5976 41.5513 24.364 39.5707 25.736C37.3119 26.5754 34.6391 24.771 32.6589 26.7527C30.2266 27.8501 27.6227 25.2674 25.29 27.1704C23.0446 27.5182 21.0294 25.7474 17.3626 26.876C16.4395 27.1175 13.2027 25.0968 12.2631 25.1524L12.2576 25.1526Z" fill="#FDAAB5" fill-opacity="0.66"/>
<path d="M7.66461 27.1566C6.40476 26.3112 5.29212 25.2648 4.37069 24.0587L4.35546 24.0362C3.17099 22.061 2.85245 18.7887 4.40993 16.9336L4.59439 16.7141L4.80542 16.905C5.85389 17.8534 7.04865 17.8566 8.31318 17.8595C8.93267 17.8445 9.55215 17.881 10.1652 17.9686C11.8802 18.1351 13.6517 18.0854 15.3599 18.0459C17.1669 17.9991 19.0356 17.9519 20.8755 18.1466L20.9088 18.1508L20.9402 18.1616C23.9366 19.2489 27.1423 20.2264 30.4307 19.1987L30.451 19.1925C31.5564 18.9368 32.9253 18.5295 34.2521 18.1389C36.2335 17.5489 37.9492 17.0419 38.5879 17.0854C41.2791 17.1705 45.2279 16.3394 46.8492 15.5634C48.1399 14.7625 49.7715 14.6206 51.3423 14.4758C52.6946 14.3551 54.0913 14.23 55.2815 13.6957C56.4978 12.931 57.8281 12.3602 59.1109 11.8118C60.1574 11.3639 61.2384 10.9008 62.2387 10.3392C63.2782 9.80045 64.1746 9.17807 65.1248 8.52023C66.491 7.5727 67.9046 6.59329 69.7723 5.86734C71.45 5.161 75.6991 3.76723 78.7685 6.1749L78.8048 6.19988L78.8299 6.23728C79.094 6.64056 79.1333 7.90687 79.1403 8.28354L79.1419 8.33566L79.123 8.38444C78.8525 9.10591 78.9984 10.2173 79.1524 11.3947C79.3244 12.7093 79.5149 14.1951 79.2244 15.5889C80.4098 16.1616 80.8086 17.6109 81.1954 19.0156C81.4843 20.063 81.7822 21.1461 82.3888 21.9126L82.4331 21.9686L82.4451 22.0386C82.9817 25.3401 80.0052 27.6325 77.6108 29.4716C77.4717 29.5786 77.332 29.6825 77.1983 29.7892C75.2358 31.5509 72.4577 32.5969 68.7053 32.9871C67.1295 33.3957 65.5183 33.2805 63.959 33.1755C62.6938 33.0822 61.382 32.9945 60.1197 33.1905C59.0422 33.46 57.9328 33.3853 56.8594 33.3126C55.6054 33.2283 54.4211 33.1477 53.3061 33.5807L53.2734 33.5931L53.24 33.597C52.5471 33.6827 51.828 33.7209 51.1326 33.7579C49.8844 33.8226 48.5975 33.893 47.3778 34.2311C46.3976 34.4642 45.432 34.4079 44.4991 34.3526C43.5038 34.2947 42.563 34.2393 41.6232 34.5069L41.5817 34.5187L41.5379 34.5181C39.3707 34.4472 37.1874 34.7532 35.0762 35.0498C33.1245 35.3245 31.1068 35.6076 29.0824 35.5974C27.7426 35.5561 26.4523 35.2468 25.2059 34.9436C24.2867 34.7246 23.3346 34.495 22.3837 34.3804L22.3407 34.3749L22.3 34.3563C20.9834 33.743 19.6951 32.9974 18.4495 32.2771C16.078 30.9056 13.6218 29.4919 10.9033 28.949L10.8713 28.9431L10.845 28.925C9.73542 28.429 8.67131 27.8373 7.66461 27.1566ZM4.82337 23.7352C6.20544 25.5845 8.29915 27.1596 11.0446 28.4192C13.8432 28.9797 16.3272 30.4152 18.7281 31.8043C19.9507 32.5113 21.2132 33.2459 22.4973 33.8422C23.4536 33.9784 24.4014 34.168 25.3362 34.4103C26.5576 34.7031 27.8199 35.0065 29.0967 35.046C31.0725 35.055 33.07 34.7741 35.0024 34.5022C37.1228 34.2039 39.3153 33.8961 41.5168 33.9638C42.5327 33.6828 43.5497 33.7422 44.5339 33.8006C45.4684 33.8556 46.3515 33.9075 47.2426 33.695C48.5114 33.3437 49.8307 33.2728 51.1053 33.2047C51.8118 33.1673 52.4797 33.1315 53.1419 33.0515C54.3619 32.5887 55.6513 32.6758 56.8998 32.7603C57.9337 32.8301 59.0037 32.9018 60.0011 32.6497L60.0263 32.6442C61.3518 32.4379 62.6965 32.5322 63.9978 32.6235C65.5892 32.7345 67.0937 32.8394 68.5872 32.4494L68.6286 32.4417C72.2765 32.0654 74.9608 31.0623 76.8368 29.374L76.8481 29.3576C76.9873 29.2506 77.127 29.1467 77.2711 29.0324C79.6472 27.2063 82.3397 25.136 81.9059 22.1965C81.2608 21.3498 80.9546 20.2382 80.6581 19.1628C80.2673 17.7446 79.8981 16.4057 78.8068 16.0091L78.5717 15.9252L78.633 15.6827C78.9759 14.3196 78.7764 12.8021 78.6024 11.4633C78.4371 10.1935 78.2926 9.08979 78.5874 8.24545C78.5734 7.59138 78.494 6.80899 78.3849 6.57685C75.5502 4.38978 71.5663 5.71099 69.9776 6.38324C68.1632 7.08812 66.7772 8.04889 65.4369 8.97807C64.5143 9.61727 63.5606 10.2781 62.4981 10.8291C61.4813 11.4009 60.3856 11.8699 59.3292 12.3245C58.0574 12.8685 56.7432 13.4315 55.5602 14.1789L55.5262 14.1971C54.2484 14.7732 52.7972 14.9037 51.3932 15.0277C49.805 15.1686 48.3075 15.3022 47.1295 16.0422L47.1036 16.0566C45.4328 16.8617 41.339 17.7286 38.5653 17.6391L38.551 17.6386C38.0144 17.5943 36.1803 18.1393 34.4058 18.6676C33.079 19.0622 31.7064 19.471 30.5865 19.7302C27.1514 20.802 23.728 19.7619 20.7845 18.6949C18.9909 18.5065 17.1531 18.5535 15.3759 18.598C13.6434 18.6436 11.8512 18.6884 10.0989 18.5178L10.0794 18.5151C9.49368 18.4318 8.90192 18.3973 8.31016 18.4119C7.07898 18.4091 5.80957 18.4056 4.65984 17.511C3.50228 19.162 3.78181 21.9994 4.82337 23.7352Z" fill="white"/>
</g>
<defs>
<clipPath id="clip0_3:266">
<rect width="95" height="63" fill="white"/>
</clipPath>
</defs>
</svg>
