<svg width="95" height="63" viewBox="0 0 95 63" fill="none" xmlns="http://www.w3.org/2000/svg"><g clip-path="url(#a)"><path d="M9.672 54.608c-.528 1.104-1.632 2.416-2.96 2.416-1.888 0-2.8-1.488-2.8-2.896 0-.832.512-2.128 1.888-2.48l.416-.064c.496-.064.96-.288.96-.752 0-.352-.24-.464-.432-.528-.512-.192-1.568-.272-1.568-1.696 0-.816.352-1.792 1.296-1.856.512 0 .976.4 1.104.944.096.416.448.64.912.64.304 0 .592-.144.784-.288 0-.832-.752-2.176-2.864-2.176-2.256 0-3.504 1.504-3.504 2.88 0 .96.56 1.616 1.248 2.048-1.408.368-2.752 1.744-2.752 3.616 0 1.952 1.84 3.76 4.928 3.76 1.52 0 4.304-.768 4.304-2.608 0-.512-.4-.992-.96-.96zm7.65-.144c0-.448 0-1.424.128-2-.176-.688-1.184-1.632-2.4-1.632-2.208 0-3.904 2.144-3.904 4.352 0 1.312.864 2.272 2.048 2.272 1.024 0 2.288-.88 2.736-2.112.08.656.432 1.744 1.44 1.744.224 0 .576-.064.784-.24-.4-.416-.832-1.68-.832-2.384zm-3.776 1.344c-.24 0-.352-.384-.352-.704 0-1.072 1.088-3.28 1.952-3.28.256 0 .432.192.528.448-.176 1.024-1.216 3.536-2.128 3.536zm5.614.24c-.335 0-.608.224-.608.544 0 .816 1.184 1.152 2.096 1.152 1.585 0 2.736-1.056 2.736-2.256 0-.752-.495-1.328-1.424-2.048-.72-.56-1.072-.848-1.072-1.152 0-.128.048-.256.16-.4.209.032.385.048.545.048.672 0 .895-.288.895-.768-.175-.208-.575-.368-1.12-.368-1.167 0-2.463.608-2.463 1.92 0 1.456 2.143 2.064 2.143 3.088a.786.786 0 0 1-.735.784c-.368 0-.944-.24-1.152-.544zm9.705-5.2c-.256 0-.48.048-.832.144.144.576.192 1.168.192 1.776 0 .464-.032.928-.096 1.392-.288.848-.768 1.36-1.056 1.36-.752 0-1.008-2.944-1.408-3.904-.208-.48-.592-.64-.992-.64-.672 0-1.36.432-1.36.432.384.352.832 1.392 1.056 2.256.208.88.944 3.216 2.096 3.216.496 0 .912-.288 1.264-.688-.112.432-.24.864-.368 1.264-.016.176-1.04 2.688-2.336 2.688-.368 0-.544-.16-.688-.16-.176 0-.224.4-.224.704 0 .528.32 1.296 1.568 1.296 2.464 0 4-6.464 4.176-7.52.064-.336.224-1.056.224-1.76 0-.944-.112-1.856-1.216-1.856zm9.68 3.552c-2.465 0-3.44.048-3.44-1.072 0-.192.031-.272.111-.48 1.008-.112 1.376-.128 3.36-.144 1.456 0 3.056 0 3.056.928 0 .256-.08.384-.272.64-.592.08-1.472.128-2.816.128zm16.43-5.92s-.289-2.176-3.249-2.176c-3.472 0-5.104 3.536-5.104 6.4 0 2.64 1.584 5.568 4.96 5.568 1.408 0 2.72-.544 3.568-1.6.192-.24.368-.56.368-.912 0-.256-.112-.56-.544-.704-.384.368-1.44 1.648-3.008 1.648-1.344 0-2.72-1.52-2.72-4.368 0-1.248.4-5.008 2.88-5.008.768 0 .976.88 1.056 1.008a.91.91 0 0 0 .752.448c.4 0 .784-.096 1.04-.304zm4.977 2.128c-1.088 0-1.936.576-2.064 1.744h-.032c-1.024 0-1.584 1.04-1.584 2.192 0 1.392.896 3.056 2.88 3.024 2.112-.032 3.2-2.096 3.2-3.952 0-1.568-.768-3.008-2.4-3.008zm-.72 6.112c-.544 0-.96-.624-.96-1.248 0-.528.208-1.056.624-1.216.048-.208.08-.416.08-.64 0-.528-.176-1.008-.672-1.184.144-.224.416-.56.8-.56.992 0 1.28 1.136 1.28 2.256 0 1.056-.32 2.592-1.152 2.592zm7.345-6.112c-1.088 0-1.936.576-2.064 1.744h-.032c-1.024 0-1.584 1.04-1.584 2.192 0 1.392.896 3.056 2.88 3.024 2.112-.032 3.2-2.096 3.2-3.952 0-1.568-.768-3.008-2.4-3.008zm-.72 6.112c-.544 0-.96-.624-.96-1.248 0-.528.208-1.056.624-1.216.048-.208.08-.416.08-.64 0-.528-.176-1.008-.672-1.184.144-.224.416-.56.8-.56.992 0 1.28 1.136 1.28 2.256 0 1.056-.32 2.592-1.152 2.592zm10.113-.224c-.784-.144-1.296-.512-1.808-1.104a6.801 6.801 0 0 1-.816-1.232c1.488-1.056 2.08-1.952 2.08-2.784 0-.624-.4-.848-.864-.848-.272 0-.672.08-.912.208-.16 1.472-1.264 2.672-2.128 3.312.112-2.544.192-4.816.192-5.584 0-1.056-.272-1.584-.912-1.584-.336 0-.752.128-1.344.464.384 1.728.384 3.984.384 5.792 0 1.696-.048 3.568-.304 4.544.224.16.544.304.88.304.752 0 .976-.944 1.008-1.6l.048-1.056c.208-.112.4-.224.592-.336.704 1.504 1.344 2.88 2.848 2.88.592 0 1.12-.352 1.12-.864 0-.128 0-.368-.064-.512zm2.06-7.392c-.497 0-1.265.192-1.265.752 0 .416.256 1.328.928 1.328.528 0 1.312-.64 1.312-1.2 0-.4-.288-.88-.976-.88zm.72 8.32c0-1.984.095-2.928.095-4.448 0-.832-.432-1.216-1.232-1.216-.288 0-.544.048-.832.096.016.4.016.88.016 1.04 0 1.184-.064 1.936-.064 2.752 0 1.408.128 2.08 1.104 2.08.336 0 .592-.112.912-.304zm7.693-2.24c0-.576.048-.944.048-1.792 0-1.2-.176-2.288-1.664-2.288-.576 0-1.392.16-2.96 2.944 0-.928.096-1.984.096-2.4 0-.8-.448-1.12-.96-1.12-.416 0-.88.208-1.216.512.112.416.144.864.144 1.312 0 .816-.112 1.856-.112 2.816 0 1.088.112 2.096 1.36 2.096.272 0 .448-.048.64-.144 1.104-4.288 2.272-4.864 2.496-4.864.08 0 .128.064.128.336 0 .416-.064 1.472-.064 2.528 0 1.696.864 2.496 1.648 2.496.432 0 .864-.272.992-.624-.352-.352-.576-.912-.576-1.808zm4.088 1.44c-.592-.112-1.088-.208-1.088-.56 0-.096.032-.192.096-.256.208.048.432.064.672.064 1.712 0 2.912-1.456 2.912-3.072 0-.528-.112-1.04-.352-1.472.64-.384 1.408-.576 1.408-.576 0-.08.016-.144.016-.208 0-.688-.368-.976-.72-.976-.64 0-1.088.528-1.36 1.008-.352-.256-.816-.416-1.376-.416-1.04 0-1.808.464-1.904 1.424-.928 0-1.424.768-1.424 1.664 0 .784.368 1.648 1.136 2.16-.288.24-.496.512-.496.864 0 .512.256 1.184 2.048 1.648 1.024.256 1.984.704 1.984 1.744 0 .768-.576 1.344-1.392 1.344-.88 0-1.408-.608-1.408-1.328 0-.352.128-.816.368-1.104-.336-.272-.656-.432-1.184-.432-.768 0-1.344.592-1.344 1.536 0 1.632 1.808 2.416 3.424 2.416 1.744 0 3.712-.88 3.712-2.832 0-2.208-2.608-2.432-3.728-2.64zm-.384-5.216c.8 0 .928 1.024.928 1.744 0 .848-.352 1.68-.896 1.68a.782.782 0 0 1-.768-.784c0-.416.224-.8.576-.896.016-.192.064-.352.064-.528a1.044 1.044 0 0 0-.48-.848c.144-.176.32-.368.576-.368z" fill="#FDFDFD"/><path fill-rule="evenodd" clip-rule="evenodd" d="M76.786 12.192l-1.477-.28c-.243.256-.288.53-.083.824.31.727.608 1.458.747 2.242.15.438.194.906.13 1.366-.082 1.217-.142 2.434-.202 3.651 1.091-.145.815.87.952 1.52l1.175 3.405.944.433c.42-.68.386-1.493.75-2.183.438-.846-.133-1.886.494-2.66.392-.74.483-1.61.92-2.321 1.065-.16 1.52-1.396 2.394-1.978.89-.636 1.823-1.253 2.605-2.015.58-.955 1.26-1.846 2.029-2.657.345-.77.718-1.541.868-2.372.145-1.044-.079-2.098-.234-3.131-.118-.709-.487-1.36-.91-1.893.122-.53-.421-1.448-.822-.73-.213.409-1.864.35-.96.964 1.223.645 1.598 2.223 1.171 3.477-.317 1.239-1.252 2.155-2.145 3.011-.44.747-1.282.97-1.975 1.412-.735.757-1.787.971-2.597 1.57-.751.773-1.494-.537-2.225-.789a11.82 11.82 0 0 0-1.543-.866h-.006z" fill="#89A754"/><path fill-rule="evenodd" clip-rule="evenodd" d="M78.614 18.876c-.216.672-.47 1.333-.508 2.043l-.135 1.058c-.529.785-.203 1.714.098 2.557.5.827.9.909 1.029.37.316-.552.204-1.048.472-1.604.194-.403.103-.271.194-.403.211-.795-.188-1.688.369-2.378.39-.74.525-1.691.959-2.404.659-.053 1.056-.586 1.488-1.067.743-.91 1.754-1.432 2.645-2.175.634-.369 1.038-.953 1.417-1.569.45-.772 1.255-1.36 1.612-2.113.323-.872.715-1.621.733-2.593.063-.794-.122-1.53-.243-2.341-.032 1.236-.246 2.457-.841 3.554-.757 1.627-2.216 2.72-3.487 3.918-1.578 1.733-3.308 3.362-5.267 4.659-.191.147-.402.283-.535.488z" fill="#657B3E"/><path fill-rule="evenodd" clip-rule="evenodd" d="M7.241 21.51c-1.362 1.628-1.137 4.546-.077 6.332 1.47 1.996 3.628 3.41 5.868 4.422 3.89.742 7.05 3.343 10.585 4.977 2.083.234 4.057 1.03 6.175 1.079 3.886-.011 7.677-1.202 11.566-1.106 1.773-.525 3.548.14 5.34-.303 1.806-.518 3.7-.408 5.479-.646 2.023-.803 4.27.118 6.365-.43 2.65-.437 5.346.458 7.966-.254 2.78-.31 5.663-1.07 7.782-2.992 2.31-1.802 5.313-3.932 4.839-7.031-1.403-1.79-1.027-5.191-2.984-5.883.648-2.515.176-5.375-.91-7.6 1.252-.114 1.82.633.7-1.137-2.373-1.871-5.737-1.196-8.09-.178-2.887 1.15-4.599 2.954-6.989 4.216-2.093 1.195-4.44 1.883-6.478 3.195-2.46 1.134-5.67.43-7.833 1.803-1.599.786-5.357 1.575-7.81 1.517-.924-.07-4.963 1.418-7.492 2.022-3.072.982-6.063.132-8.962-.902-3.31-.327-6.655.211-9.938-.084-1.764-.29-3.58.365-5.098-1.014l-.004-.002z" fill="#E00522"/><path fill-rule="evenodd" clip-rule="evenodd" d="M10.607 30.816s.696.605 2.432 1.349c3.891.743 7.084 3.364 10.619 4.998 2.082.235 4.044 1.005 6.161 1.054 3.886-.011 7.856-1.135 11.607-1.116 1.774-.525 3.437.156 5.228-.288 1.806-.519 3.733-.415 5.51-.65 2.024-.804 4.308.12 6.403-.427 2.65-.438 5.327.466 7.945-.243 2.78-.314 5.578-1.047 7.7-2.971 2.31-1.804 5.316-3.822 4.839-6.922-.263-.29-.498-.812-.682-1.342-.387-1.098-.421-1.913-.603-1.541-.97 1.969-3.507 4.539-4.769 4.742-2.147.347-4.919 1.18-6.585 2.363-2.066 1.467-4.777 1.921-7.797 1.879-2.927-.041-5.846-.102-8.427 1.07-1.822.825-3.905.602-5.664 1.15-3.478 1.086-6.743 2.668-11.475 2.143-3.174-.353-3.61.469-6.104.252-2.382-.21-3.98-.147-6.284-1.466-3.792-2.174-7.384-2.957-10.05-4.032l-.004-.002z" fill="#BA041C"/><path fill-rule="evenodd" clip-rule="evenodd" d="M12.258 25.153c3.728 1.848 2.918 2.573 5.158 2.494 2.182-.076 4.959.158 6.459.653 2.484.75 4.89-.304 7.364.247 2.37-.472 4.696-.63 7.087-.83 2.297-.317 4.658.18 6.65-1.482 2.138-1.057 4.615.053 6.47-1.992 1.782-1.098 4.027.326 5.414-1.844 1.667-1.8 3.53 1.42 5.099-.954 1.388-1.705 3.341-2.643 5.185-3.71 1.41-.76 2.851-1.452 4.258-2.216-.098-1.72-2.674 1.134-3.948.699-2.672.772-5.126 2.185-7.575 3.523-2.66-1.737-4.704 1.865-6.97 2.354-2.329-.075-4.794.026-6.755 1.58-2.133.923-4.603.689-6.583 2.061-2.26.84-4.932-.965-6.912 1.017-2.432 1.097-5.036-1.486-7.369.417-2.245.348-4.26-1.423-7.927-.294-.924.241-4.16-1.78-5.1-1.724h-.005z" fill="#FDAAB5" fill-opacity=".66"/><path d="M7.665 27.157a13.873 13.873 0 0 1-3.294-3.098l-.016-.023c-1.184-1.975-1.503-5.247.055-7.102l.184-.22.211.191c1.049.948 2.244.952 3.508.954a11.18 11.18 0 0 1 1.852.11c1.715.166 3.487.116 5.195.077 1.807-.047 3.676-.094 5.515.1l.034.005.031.01c2.997 1.088 6.202 2.065 9.49 1.038l.021-.007c1.105-.255 2.474-.663 3.801-1.053 1.981-.59 3.697-1.097 4.336-1.054 2.691.085 6.64-.746 8.261-1.522 1.29-.8 2.923-.942 4.493-1.087 1.353-.12 2.75-.246 3.94-.78 1.216-.765 2.546-1.336 3.829-1.884 1.046-.448 2.127-.911 3.128-1.473 1.04-.539 1.936-1.16 2.886-1.819 1.366-.947 2.78-1.927 4.647-2.653 1.678-.706 5.927-2.1 8.996.308l.037.025.025.037c.264.404.303 1.67.31 2.047l.002.052-.019.048c-.27.722-.125 1.833.03 3.01.171 1.315.362 2.801.071 4.195 1.186.573 1.585 2.022 1.971 3.427.29 1.047.587 2.13 1.194 2.897l.044.056.012.07c.537 3.301-2.44 5.593-4.834 7.433-.14.107-.279.21-.413.317-1.962 1.762-4.74 2.808-8.493 3.198-1.576.409-3.187.294-4.746.188-1.265-.093-2.577-.18-3.84.016-1.077.269-2.186.194-3.26.122-1.254-.085-2.438-.165-3.553.268l-.033.012-.033.004c-.693.086-1.412.124-2.107.16-1.249.066-2.536.136-3.755.474-.98.233-1.946.177-2.879.122-.995-.058-1.936-.114-2.876.154l-.041.012h-.044c-2.167-.072-4.35.234-6.462.53-1.952.276-3.97.559-5.994.548-1.34-.04-2.63-.35-3.876-.653-.92-.22-1.871-.449-2.822-.564l-.043-.005-.041-.019c-1.317-.613-2.605-1.359-3.85-2.079-2.372-1.371-4.828-2.785-7.547-3.328l-.032-.006-.026-.018a20.918 20.918 0 0 1-3.18-1.768zm-2.842-3.422c1.382 1.85 3.476 3.425 6.222 4.684 2.798.56 5.282 1.996 7.683 3.385 1.223.707 2.485 1.442 3.77 2.038a25.83 25.83 0 0 1 2.838.568c1.222.293 2.484.597 3.76.636 1.977.009 3.974-.272 5.906-.544 2.12-.298 4.313-.606 6.515-.538 1.016-.281 2.033-.222 3.017-.163.934.055 1.818.106 2.709-.106 1.268-.351 2.588-.422 3.862-.49a30.358 30.358 0 0 0 2.037-.154c1.22-.462 2.51-.375 3.758-.29 1.034.07 2.104.14 3.101-.111l.025-.006c1.326-.206 2.67-.112 3.972-.02 1.591.11 3.096.215 4.59-.175l.04-.007c3.648-.377 6.333-1.38 8.209-3.068l.011-.016c.14-.107.279-.211.423-.326 2.376-1.826 5.069-3.896 4.635-6.835-.645-.847-.951-1.959-1.248-3.034-.39-1.418-.76-2.757-1.851-3.154l-.235-.084.061-.242c.343-1.363.143-2.88-.03-4.22-.166-1.27-.31-2.373-.016-3.218-.014-.654-.093-1.436-.202-1.668-2.835-2.187-6.819-.866-8.407-.194-1.815.705-3.2 1.666-4.541 2.595-.923.64-1.876 1.3-2.939 1.851-1.017.572-2.112 1.04-3.169 1.495-1.272.544-2.586 1.107-3.769 1.855l-.034.018c-1.278.576-2.729.707-4.133.83-1.588.142-3.086.275-4.264 1.015l-.025.015c-1.671.805-5.765 1.672-8.539 1.582h-.014c-.537-.045-2.37.5-4.145 1.029-1.327.394-2.7.803-3.82 1.062-3.435 1.072-6.858.032-9.801-1.035-1.794-.189-3.632-.142-5.41-.097-1.732.046-3.524.09-5.276-.08l-.02-.003a10.692 10.692 0 0 0-1.769-.103c-1.231-.003-2.5-.006-3.65-.901-1.158 1.651-.878 4.488.163 6.224z" fill="#fff"/></g><defs><clipPath id="a"><path fill="#fff" d="M0 0h95v63H0z"/></clipPath></defs></svg>